:FULLY-SPECIFIED
:FORCE-ALL-JOINTS-BE-3DOF
:DEGREES
408
root 4.67286 16.3176 -11.25 -0.133043 -36.4147 -5.36965
lfemur -30.0127 4.58544 -9.52987
ltibia 43.0404 0 0
lfoot -9.52579 15.2659 0
ltoes -0.214804 0 0
rfemur -36.5807 -24.1521 25.9638
rtibia 84.4444 0 0
rfoot 5.7364 -6.5353 0
rtoes 40.6727 0 0
lowerback 5.01342 4.64732 -0.313417
upperback 1.52494 6.12769 -1.90796
thorax -1.06262 3.05892 -2.13024
lowerneck -6.3969 1.77409 6.94938
upperneck 4.05926 1.69802 0.979196
head 2.44709 0.984676 -0.828248
lclavicle -4.45092e-14 -6.8479e-16 0
lhumerus -45.5661 -18.1385 94.4197
lradius 51.7487 0 0
lwrist 19.6594 0 0
lhand -17.4371 3.72423 0
lfingers 7.12502 0 0
lthumb 8.81459 33.5301 0
rclavicle -4.45092e-14 -6.8479e-16 0
rhumerus -44.7559 10.3987 -92.045
rradius 63.1577 0 0
rwrist 7.81937 0 0
rhand -17.88 -18.0648 0
rfingers 7.12502 0 0
rthumb 8.38317 -767.842 0
409
root 4.6595 16.3221 -11.1617 -1.21794 -36.1207 -6.49562
lfemur -30.0423 4.38217 -9.57079
ltibia 43.0423 0 0
lfoot -9.59448 15.3193 0
ltoes -0.406028 0 0
rfemur -36.658 -23.987 25.8016
rtibia 84.4487 0 0
rfoot 5.71196 -6.51716 0
rtoes 40.3984 0 0
lowerback 5.0157 4.65584 -0.279225
upperback 1.50703 6.14161 -1.87308
thorax -1.08497 3.06635 -2.11443
lowerneck -6.41771 1.7487 6.93058
upperneck 4.12259 1.66566 0.945727
head 2.46704 0.968637 -0.840797
lclavicle -4.47145e-14 -3.97564e-16 0
lhumerus -45.6061 -18.142 94.5523
lradius 51.7433 0 0
lwrist 19.5578 0 0
lhand -17.4111 3.66822 0
lfingers 7.12502 0 0
lthumb 8.83984 33.4739 0
rclavicle -4.47145e-14 -3.97564e-16 0
rhumerus -44.5883 10.3931 -91.978
rradius 63.3497 0 0
rwrist 7.80061 0 0
rhand -17.7466 -18.0629 0
rfingers 7.12502 0 0
rthumb 8.51078 -767.82 0
410
root 4.64723 16.3265 -11.0741 -2.35951 -35.7738 -7.67619
lfemur -30.0682 4.17158 -9.61701
ltibia 43.0487 0 0
lfoot -9.66823 15.3566 0
ltoes -0.583919 0 0
rfemur -36.7446 -23.8098 25.6336
rtibia 84.4428 0 0
rfoot 5.69094 -6.49391 0
rtoes 40.1047 0 0
lowerback 5.01996 4.66187 -0.246314
upperback 1.48967 6.15219 -1.83731
thorax -1.10789 3.07212 -2.09679
lowerneck -6.43915 1.71731 6.90701
upperneck 4.18661 1.6257 0.913973
head 2.4875 0.948778 -0.852421
lclavicle -4.48779e-14 -1.1751e-16 0
lhumerus -45.6483 -18.1538 94.6946
lradius 51.7407 0 0
lwrist 19.4514 0 0
lhand -17.3706 3.61271 0
lfingers 7.12502 0 0
lthumb 8.87894 33.4164 0
rclavicle -4.48779e-14 -1.1751e-16 0
rhumerus -44.422 10.4116 -91.9093
rradius 63.5562 0 0
rwrist 7.78554 0 0
rhand -17.5991 -18.0563 0
rfingers 7.12502 0 0
rthumb 8.65189 -767.793 0
411
root 4.63602 16.3307 -10.9873 -3.55633 -35.3751 -8.91002
lfemur -30.0907 3.95389 -9.66842
ltibia 43.0597 0 0
lfoot -9.74693 15.3781 0
ltoes -0.748701 0 0
rfemur -36.8402 -23.6211 25.4601
rtibia 84.4269 0 0
rfoot 5.67326 -6.46562 0
rtoes 39.792 0 0
lowerback 5.02615 4.66546 -0.21467
upperback 1.47285 6.1595 -1.80068
thorax -1.13138 3.07626 -2.07734
lowerneck -6.46119 1.68004 6.87875
upperneck 4.2513 1.57828 0.883911
head 2.50848 0.925171 -0.863136
lclavicle -4.50001e-14 1.55448e-16 0
lhumerus -45.6924 -18.1737 94.8462
lradius 51.7411 0 0
lwrist 19.3402 0 0
lhand -17.316 3.55768 0
lfingers 7.12502 0 0
lthumb 8.93162 33.3577 0
rclavicle -4.50001e-14 1.55448e-16 0
rhumerus -44.2568 10.4538 -91.8389
rradius 63.7771 0 0
rwrist 7.77404 0 0
rhand -17.4379 -18.0453 0
rfingers 7.12502 0 0
rthumb 8.80617 -767.759 0
412
root 4.62585 16.3347 -10.9013 -4.80701 -34.9258 -10.1957
lfemur -30.1097 3.72931 -9.72491
ltibia 43.075 0 0
lfoot -9.83049 15.3841 0
ltoes -0.900597 0 0
rfemur -36.9447 -23.4209 25.2811
rtibia 84.4011 0 0
rfoot 5.65886 -6.43235 0
rtoes 39.4608 0 0
lowerback 5.03423 4.66664 -0.184279
upperback 1.45655 6.16358 -1.76321
thorax -1.15541 3.0788 -2.05613
lowerneck -6.48383 1.63699 6.84591
upperneck 4.31664 1.52355 0.855517
head 2.52995 0.897892 -0.872956
lclavicle -4.50821e-14 4.21389e-16 0
lhumerus -45.7386 -18.2017 95.0069
lradius 51.7442 0 0
lwrist 19.2244 0 0
lhand -17.2475 3.50314 0
lfingers 7.12502 0 0
lthumb 8.99758 33.2977 0
rclavicle -4.50821e-14 4.21389e-16 0
rhumerus -44.0927 10.5191 -91.7669
rradius 64.0121 0 0
rwrist 7.76595 0 0
rhand -17.2633 -18.0299 0
rfingers 7.12502 0 0
rthumb 8.9733 -767.72 0
413
root 4.61671 16.3386 -10.816 -6.11016 -34.4267 -11.532
lfemur -30.1253 3.49805 -9.78639
ltibia 43.0946 0 0
lfoot -9.91882 15.375 0
ltoes -1.03983 0 0
rfemur -37.058 -23.2096 25.0968
rtibia 84.3657 0 0
rfoot 5.64769 -6.39419 0
rtoes 39.1114 0 0
lowerback 5.04416 4.66547 -0.155128
upperback 1.44078 6.1645 -1.72492
thorax -1.17996 3.07977 -2.03319
lowerneck -6.50704 1.58829 6.80857
upperneck 4.38262 1.46167 0.828769
head 2.55191 0.867016 -0.881895
lclavicle -4.51246e-14 6.8039e-16 0
lhumerus -45.7867 -18.2375 95.1765
lradius 51.7501 0 0
lwrist 19.1041 0 0
lhand -17.1655 3.44908 0
lfingers 7.12502 0 0
lthumb 9.07653 33.2365 0
rclavicle -4.51246e-14 6.8039e-16 0
rhumerus -43.9296 10.607 -91.6933
rradius 64.2608 0 0
rwrist 7.76114 0 0
rhand -17.0756 -18.0103 0
rfingers 7.12502 0 0
rthumb 9.15298 -767.675 0
414
root 4.60858 16.3424 -10.7315 -7.46437 -33.879 -12.9173
lfemur -30.1376 3.26034 -9.85273
ltibia 43.1185 0 0
lfoot -10.0118 15.351 0
ltoes -1.16663 0 0
rfemur -37.1797 -22.9874 24.9075
rtibia 84.3208 0 0
rfoot 5.63967 -6.3512 0
rtoes 38.7443 0 0
lowerback 5.05589 4.66197 -0.127203
upperback 1.42552 6.1623 -1.68584
thorax -1.20503 3.07918 -2.00855
lowerneck -6.53082 1.53406 6.76683
upperneck 4.44923 1.39276 0.803642
head 2.57435 0.832616 -0.889968
lclavicle -4.51285e-14 9.32528e-16 0
lhumerus -45.8365 -18.2811 95.3548
lradius 51.7587 0 0
lwrist 18.9793 0 0
lhand -17.0702 3.3955 0
lfingers 7.12502 0 0
lthumb 9.1682 33.1742 0
rclavicle -4.51285e-14 9.32528e-16 0
rhumerus -43.7676 10.717 -91.6182
rradius 64.523 0 0
rwrist 7.75946 0 0
rhand -16.8752 -17.9864 0
rfingers 7.12502 0 0
rthumb 9.34488 -767.624 0
415
root 4.60143 16.346 -10.6477 -8.86824 -33.2838 -14.3505
lfemur -30.1466 3.01637 -9.92384
ltibia 43.1464 0 0
lfoot -10.1094 15.3126 0
ltoes -1.28122 0 0
rfemur -37.3097 -22.7546 24.7131
rtibia 84.2667 0 0
rfoot 5.63475 -6.30346 0
rtoes 38.3598 0 0
lowerback 5.06939 4.65619 -0.100489
upperback 1.41075 6.15704 -1.64599
thorax -1.23059 3.07708 -1.98225
lowerneck -6.55513 1.47441 6.72078
upperneck 4.51643 1.317 0.780113
head 2.59725 0.794768 -0.897191
lclavicle -4.50946e-14 1.17788e-15 0
lhumerus -45.8881 -18.3322 95.5414
lradius 51.77 0 0
lwrist 18.8504 0 0
lhand -16.9619 3.3424 0
lfingers 7.12502 0 0
lthumb 9.27228 33.1108 0
rclavicle -4.50946e-14 1.17788e-15 0
rhumerus -43.6064 10.8487 -91.5414
rradius 64.7983 0 0
rwrist 7.76078 0 0
rhand -16.6624 -17.9585 0
rfingers 7.12502 0 0
rthumb 9.54869 -767.568 0
416
root 4.59526 16.3495 -10.5647 -10.3204 -32.6421 -15.8301
lfemur -30.1524 2.76638 -9.9996
ltibia 43.1784 0 0
lfoot -10.2114 15.2601 0
ltoes -1.38382 0 0
rfemur -37.4479 -22.5116 24.514
rtibia 84.2034 0 0
rfoot 5.63285 -6.25103 0
rtoes 37.9585 0 0
lowerback 5.0846 4.64819 -0.0749728
upperback 1.39649 6.14879 -1.60538
thorax -1.25663 3.07348 -1.95432
lowerneck -6.57998 1.40946 6.67052
upperneck 4.58423 1.23451 0.758159
head 2.62061 0.753545 -0.903577
lclavicle -4.50238e-14 1.41653e-15 0
lhumerus -45.9414 -18.3907 95.7363
lradius 51.7838 0 0
lwrist 18.7172 0 0
lhand -16.841 3.28978 0
lfingers 7.12502 0 0
lthumb 9.3885 33.0463 0
rclavicle -4.50238e-14 1.41653e-15 0
rhumerus -43.4462 11.0014 -91.4632
rradius 65.0867 0 0
rwrist 7.76494 0 0
rhand -16.4375 -17.9266 0
rfingers 7.12502 0 0
rthumb 9.7641 -767.507 0
